<svg width="50" height="50" viewBox="0 0 50 50" fill="none" xmlns="http://www.w3.org/2000/svg">
<g clip-path="url(#clip0_42_49)">
<path d="M11.2445 8.30517H9.01561C8.33779 6.45302 6.29934 4.83124 3.95816 5.16391C1.88395 5.45999 0.270488 7.06181 0.033459 9.06033C-0.121234 10.3677 0.263835 11.6178 1.1188 12.5783C1.9929 13.5622 3.27535 14.1269 4.63515 14.1269H11.2445C12.9486 14.1269 14.2377 12.9185 14.2377 11.3117C14.2377 11.3075 14.2377 11.3025 14.2377 11.2984C14.2377 11.2967 14.2377 11.2942 14.2377 11.2926C14.2377 11.2909 14.2377 11.2884 14.2377 11.2867C14.2377 11.2826 14.2377 11.2776 14.2377 11.2734C14.2377 9.63419 12.8937 8.30517 11.2445 8.30517Z" fill="#EB805B"/>
<path d="M41.18 3.31508H38.952C38.2741 1.45461 36.2473 -0.174648 33.8937 0.153034C31.8203 0.449113 30.206 2.05509 29.969 4.05944C29.8134 5.37017 30.2002 6.62268 31.0576 7.58743C31.9334 8.57213 33.2134 9.13685 34.5707 9.13685H41.18C42.8767 9.13685 44.1782 7.93008 44.1782 6.32244C44.1782 6.31412 44.1782 6.30581 44.1782 6.29749C44.1782 6.29416 44.1782 6.29 44.1782 6.28668C44.1782 6.28252 44.1782 6.27919 44.1782 6.27503C44.1782 6.26672 44.1782 6.25757 44.1782 6.25008C44.1782 4.62747 42.8209 3.31508 41.18 3.31508Z" fill="#EB805B"/>
<path d="M39.2139 35.9793C39.2139 28.164 32.8782 21.612 25.0621 21.612C17.2459 21.612 10.911 28.2713 10.911 36.0874C10.911 36.7262 10.9684 37.4273 11.0499 38.2914H39.0742C39.1565 37.4273 39.2139 36.6181 39.2139 35.9793Z" fill="#E66032"/>
<path d="M25.0496 14.9586C24.5897 14.9586 24.2179 14.5868 24.2179 14.1269V9.13684C24.2179 8.67692 24.5897 8.30516 25.0496 8.30516C25.5095 8.30516 25.8813 8.67692 25.8813 9.13684V14.1269C25.8813 14.5868 25.5095 14.9586 25.0496 14.9586Z" fill="#E66032"/>
<path d="M25.0496 19.9487C24.5897 19.9487 24.2179 19.5769 24.2179 19.117V17.4536C24.2179 16.9937 24.5897 16.622 25.0496 16.622C25.5095 16.622 25.8813 16.9937 25.8813 17.4536V19.117C25.8813 19.5769 25.5095 19.9487 25.0496 19.9487Z" fill="#E66032"/>
<path d="M41.0952 21.3684C40.8823 21.3684 40.6694 21.2869 40.5072 21.1247C40.182 20.7995 40.182 20.2739 40.5072 19.9487L43.5487 16.9072C43.8738 16.582 44.3995 16.582 44.7246 16.9072C45.0498 17.2324 45.0498 17.758 44.7246 18.0832L41.6832 21.1247C41.521 21.2869 41.3081 21.3684 41.0952 21.3684Z" fill="#E66032"/>
<path d="M37.5663 24.8972C37.3534 24.8972 37.1404 24.8157 36.9783 24.6535C36.6531 24.3283 36.6531 23.8027 36.9783 23.4775L38.1551 22.3007C38.4803 21.9755 39.0059 21.9755 39.3311 22.3007C39.6563 22.6259 39.6563 23.1515 39.3311 23.4767L38.1543 24.6535C37.9921 24.8165 37.7792 24.8972 37.5663 24.8972Z" fill="#E66032"/>
<path d="M49.1683 34.0872H46.6732C46.2133 34.0872 45.8416 33.7155 45.8416 33.2556C45.8416 32.7957 46.2133 32.4239 46.6732 32.4239H49.1683C49.6282 32.4239 50 32.7957 50 33.2556C50 33.7155 49.6282 34.0872 49.1683 34.0872Z" fill="#E66032"/>
<path d="M43.3465 34.0872H41.6831C41.2232 34.0872 40.8514 33.7155 40.8514 33.2556C40.8514 32.7957 41.2232 32.4239 41.6831 32.4239H43.3465C43.8064 32.4239 44.1782 32.7957 44.1782 33.2556C44.1782 33.7155 43.8064 34.0872 43.3465 34.0872Z" fill="#E66032"/>
<path d="M3.42584 34.0872H0.930802C0.470882 34.0872 0.0991211 33.7155 0.0991211 33.2556C0.0991211 32.7957 0.470882 32.4239 0.930802 32.4239H3.42584C3.88576 32.4239 4.25752 32.7957 4.25752 33.2556C4.25752 33.7155 3.88576 34.0872 3.42584 34.0872Z" fill="#E66032"/>
<path d="M8.41594 34.0872H6.75258C6.29266 34.0872 5.9209 33.7155 5.9209 33.2556C5.9209 32.7957 6.29266 32.4239 6.75258 32.4239H8.41594C8.87586 32.4239 9.24762 32.7957 9.24762 33.2556C9.24762 33.7155 8.87586 34.0872 8.41594 34.0872Z" fill="#E66032"/>
<path d="M10.6673 21.3684C10.4544 21.3684 10.2415 21.2869 10.0793 21.1247L7.03784 18.0832C6.71265 17.758 6.71265 17.2324 7.03784 16.9072C7.36302 16.582 7.88865 16.582 8.21383 16.9072L11.2553 19.9487C11.5805 20.2739 11.5805 20.7995 11.2553 21.1247C11.0931 21.2869 10.8802 21.3684 10.6673 21.3684Z" fill="#E66032"/>
<path d="M14.1961 24.8972C13.9832 24.8972 13.7703 24.8157 13.6081 24.6535L12.4313 23.4767C12.1061 23.1515 12.1061 22.6259 12.4313 22.3007C12.7565 21.9755 13.2821 21.9755 13.6073 22.3007L14.7841 23.4775C15.1093 23.8027 15.1093 24.3283 14.7841 24.6535C14.6219 24.8165 14.409 24.8972 14.1961 24.8972Z" fill="#E66032"/>
<path d="M29.2079 39.909H0.930802C0.470882 39.909 0.0991211 39.5373 0.0991211 39.0773C0.0991211 38.6174 0.470882 38.2457 0.930802 38.2457H29.2079C29.6679 38.2457 30.0396 38.6174 30.0396 39.0773C30.0396 39.5373 29.6679 39.909 29.2079 39.909Z" fill="#AD4826"/>
<path d="M49.1683 39.909H34.198C33.7381 39.909 33.3663 39.5373 33.3663 39.0773C33.3663 38.6174 33.7381 38.2457 34.198 38.2457H49.1683C49.6282 38.2457 49.9999 38.6174 49.9999 39.0773C49.9999 39.5373 49.6282 39.909 49.1683 39.909Z" fill="#AD4826"/>
<path d="M43.3465 44.8991H21.7228C21.2629 44.8991 20.8911 44.5273 20.8911 44.0674C20.8911 43.6075 21.2629 43.2357 21.7228 43.2357H43.3465C43.8064 43.2357 44.1782 43.6075 44.1782 44.0674C44.1782 44.5273 43.8064 44.8991 43.3465 44.8991Z" fill="#AD4826"/>
<path d="M16.7327 44.8991H8.41591C7.95599 44.8991 7.58423 44.5273 7.58423 44.0674C7.58423 43.6075 7.95599 43.2357 8.41591 43.2357H16.7327C17.1926 43.2357 17.5644 43.6075 17.5644 44.0674C17.5644 44.5273 17.1926 44.8991 16.7327 44.8991Z" fill="#AD4826"/>
<path d="M38.3564 49.8892H32.5347C32.0748 49.8892 31.703 49.5174 31.703 49.0575C31.703 48.5976 32.0748 48.2258 32.5347 48.2258H38.3564C38.8164 48.2258 39.1881 48.5976 39.1881 49.0575C39.1881 49.5174 38.8164 49.8892 38.3564 49.8892Z" fill="#AD4826"/>
<path d="M27.5446 49.8892H12.5744C12.1144 49.8892 11.7427 49.5174 11.7427 49.0575C11.7427 48.5976 12.1144 48.2258 12.5744 48.2258H27.5446C28.0045 48.2258 28.3763 48.5976 28.3763 49.0575C28.3763 49.5174 28.0045 49.8892 27.5446 49.8892Z" fill="#AD4826"/>
</g>
<defs>
<clipPath id="clip0_42_49">
<rect width="50" height="50" fill="white"/>
</clipPath>
</defs>
</svg>
