<svg width="19" height="30" viewBox="0 0 19 30" fill="none" xmlns="http://www.w3.org/2000/svg">
<path d="M10.1769 18.9532L10.1769 12.209C10.1769 11.6954 9.72377 11.2698 9.17689 11.2698C8.63002 11.2698 8.23314 11.6954 8.23314 12.209L8.17688 18.9532C7.01313 19.3421 6.17688 20.3766 6.17688 21.6022C6.17688 23.1577 7.52063 24.4197 9.17688 24.4197C10.8331 24.4197 12.1769 23.1577 12.1769 21.6022C12.1769 20.3737 11.3394 19.3406 10.1769 18.9532ZM16.1769 16.3471V6.57406C16.1769 2.94248 13.0444 0 9.23313 0C5.42188 0 2.17688 2.94248 2.17688 6.57406V16.3471C0.942505 17.7998 0.17688 19.6048 0.17688 21.6005C0.17688 26.2669 4.20813 30 9.17688 30C14.1456 30 18.1769 26.2669 18.1769 21.6005C18.1769 19.6048 17.4144 17.791 16.1769 16.3471ZM9.17688 26.2962C6.41875 26.2962 4.17688 24.1908 4.17688 21.6533C4.17688 20.1565 4.9425 18.7842 6.17688 17.9114V6.62395C6.17688 5.06848 7.52063 3.8065 9.17688 3.8065C10.8331 3.8065 12.1769 5.06848 12.1769 6.62395V17.9114C13.4113 18.7771 14.1769 20.1565 14.1769 21.6533C14.1769 24.189 11.9331 26.2962 9.17688 26.2962Z" fill="white"/>
</svg>
