<svg width="30" height="30" viewBox="0 0 30 30" fill="none" xmlns="http://www.w3.org/2000/svg">
<path fill-rule="evenodd" clip-rule="evenodd" d="M11.0429 0.51848C11.9083 3.83158 13.7619 6.79556 15.7057 9.47876C15.9951 9.08812 16.3008 8.68771 16.6148 8.27998C18.3593 5.99963 20.3467 3.39944 21.1193 0.40373C21.1903 0.122958 21.5015 -0.0503876 21.8155 0.0130912C22.0393 0.0594795 22.2031 0.213294 22.2523 0.401288C23.0303 3.38235 25.015 5.98254 26.7595 8.26533C28.493 10.5359 30 12.5111 30 14.3886C30 17.8726 27.8351 20.1066 25.0669 21.0856C24.1032 21.4274 23.0658 21.613 22.0229 21.6447C20.5924 33.1979 0 32.7706 0 20.358C0 15.2797 8.82064 9.11986 11.0429 0.51848ZM16.4019 10.4236C19.2656 14.2543 22.0994 17.4942 22.0994 20.358C22.0994 20.4411 22.0939 20.5192 22.0939 20.5998C22.9675 20.5607 23.8329 20.402 24.6355 20.1163C26.9915 19.2838 28.8316 17.3745 28.8316 14.3886C28.8316 12.8309 27.4201 10.9803 25.7958 8.85129C24.3243 6.92251 22.6863 4.77644 21.6844 2.32763C20.6852 4.79109 19.0445 6.93716 17.5703 8.8635C17.1635 9.40063 16.7649 9.92067 16.4019 10.4236ZM4.31613 18.9151C4.26153 18.3633 4.71471 17.8775 5.3317 17.8262C5.94868 17.7749 6.49195 18.1827 6.54928 18.7345C6.68851 20.0675 7.01338 21.2931 7.63855 22.3527C8.24188 23.3757 9.13459 24.2547 10.4286 24.9334C10.9637 25.2117 11.1411 25.827 10.8299 26.3031C10.516 26.7816 9.83074 26.9403 9.29839 26.662C7.61398 25.7782 6.44554 24.6307 5.65657 23.2878C4.88124 21.9792 4.48266 20.4997 4.31613 18.9151Z" fill="white"/>
</svg>
