<svg width="30" height="30" viewBox="0 0 30 30" fill="none" xmlns="http://www.w3.org/2000/svg">
<path d="M29.9999 0H29.2307V30H29.9999V0Z" fill="white"/>
<path d="M30 29.0909H24.6154V30H30V29.0909Z" fill="white"/>
<path d="M30 14.5454H24.6154V15.4545H30V14.5454Z" fill="white"/>
<path d="M30 0H24.6154V0.909091H30V0Z" fill="white"/>
<path d="M30 25.4546H26.9231V26.3637H30V25.4546Z" fill="white"/>
<path d="M30 21.8182H26.9231V22.7273H30V21.8182Z" fill="white"/>
<path d="M30 18.1818H26.9231V19.0909H30V18.1818Z" fill="white"/>
<path d="M30 10.9091H26.9231V11.8182H30V10.9091Z" fill="white"/>
<path d="M30 7.27274H26.9231V8.18183H30V7.27274Z" fill="white"/>
<path d="M29.9999 0H29.2307V8.18182H29.9999V0Z" fill="white"/>
<path d="M30 3.63635H26.9231V4.54544H30V3.63635Z" fill="white"/>
<path d="M13.8462 25.4546L16.9231 30L20 25.4546H13.8462Z" fill="white"/>
<path d="M6.9231 25.4546L10 30L13.0769 25.4546H6.9231Z" fill="white"/>
<path d="M0 25.4546L3.07692 30L6.15385 25.4546H0Z" fill="white"/>
<path d="M22.3077 0C22.3077 6.23636 21.9392 7.66364 19.0769 14C16.9569 18.6936 16.9231 21.0264 16.9231 25.4545" stroke="white" stroke-width="2" stroke-miterlimit="10"/>
<path d="M15.3846 0C15.3846 6.23636 15.0162 7.66364 12.1538 14C10.0338 18.6936 10 21.0264 10 25.4545" stroke="white" stroke-width="2" stroke-miterlimit="10"/>
<path d="M8.46152 0C8.46152 6.23636 8.09306 7.66364 5.23075 14C3.11075 18.6936 3.0769 21.0264 3.0769 25.4545" stroke="white" stroke-width="2" stroke-miterlimit="10"/>
</svg>
