<svg width="40" height="50" viewBox="0 0 40 50" fill="none" xmlns="http://www.w3.org/2000/svg">
<path d="M34.9119 20.3683C36.6372 19.878 36.6372 19.1214 34.913 18.63L34.3053 18.4626L33.7008 18.2854V18.2908L30.5047 17.3222L33.0301 15.2197H33.0149L33.5508 14.8697L34.0911 14.4794C35.4946 13.3672 35.1869 12.6465 33.4073 12.8509L32.7159 12.9476L32.0288 13.0455H32.0267L28.7881 13.414L30.7123 9.95695L31.0483 9.35033C31.9201 7.78488 31.3537 7.21631 29.7894 8.08601L29.1828 8.39258L28.5783 8.69697H28.5761L25.7214 10.3157L26.091 7.11304V7.10978L26.178 6.42271L26.2617 5.72913C26.466 3.95277 25.7268 3.64729 24.6136 5.05185L24.1853 5.59433L21.7316 8.69262L20.8413 5.56063L20.8391 5.55519L20.4608 4.22347C19.9705 2.4982 19.1671 2.4982 18.6757 4.22347L18.4866 4.88879L18.2974 5.55519L17.4049 8.69262L15.3817 6.13789L15.3807 6.1368L14.9512 5.59433L14.5197 5.04968C13.4075 3.64729 12.6672 3.95495 12.8727 5.73348L12.9531 6.42271L13.0325 7.10978V7.11086L13.4086 10.3494L9.95483 8.42519L9.3493 8.08819C7.78276 7.21523 7.21528 7.7827 8.08716 9.34925L8.42416 9.95369L10.3484 13.4075L7.10983 13.0313H7.10875L6.42168 12.952L5.73136 12.8715C3.95283 12.6661 3.64626 13.4064 5.04756 14.5185L5.59221 14.9501L6.13468 15.3795L6.13577 15.3806L8.69051 17.4037L5.55525 18.2973L4.88993 18.4865L4.22461 18.6757C2.49935 19.167 2.49935 19.9693 4.22461 20.4607L5.55634 20.839L5.56068 20.8412L8.69268 21.7316L5.5933 24.1863L5.05082 24.6168C3.64626 25.7289 3.95174 26.4703 5.7281 26.266L6.42168 26.179L7.10875 26.0909H7.11092L10.3158 25.7213L8.69703 28.5761V28.5783L8.39264 29.1827L8.07085 29.7893C7.20115 31.3548 7.77624 31.9201 9.34169 31.0482L9.95048 30.7123L13.413 28.7881L13.0455 32.0266V32.0288L12.9585 32.7158L12.8748 33.4062C12.6694 35.1858 13.4086 35.4913 14.5207 34.0878L14.9512 33.5442L15.3807 33.0007L17.4049 30.4438L18.2963 33.5801V33.5812L18.4855 34.2465L18.6757 34.9129C19.1671 36.6371 19.877 36.6371 20.3684 34.9118L20.6554 33.5812V33.5768L21.6392 30.4438L23.7102 33.0007L24.1624 33.5442L24.6049 34.0878C25.7159 35.4902 26.4639 35.1858 26.2584 33.4083L26.1736 32.7158L26.091 32.0277V32.0244L25.7214 28.8207L28.574 30.4394H28.5761L29.1817 30.7438L29.7883 31.0645C31.3537 31.9375 31.9223 31.3602 31.0493 29.7958L30.745 29.186L30.4395 28.5804V28.5783L28.8207 25.7213L32.0245 26.0909H32.0278L32.7159 26.1779L33.4084 26.2616C35.1858 26.4671 35.4902 25.7267 34.0879 24.6146L33.5443 24.1841L33.0007 23.7547L30.4438 21.6381L33.5769 20.6553H33.5813L34.9119 20.3683Z" fill="#F4900C"/>
<path d="M19.5682 30.0372C25.3501 30.0372 30.0372 25.3501 30.0372 19.5682C30.0372 13.7863 25.3501 9.09921 19.5682 9.09921C13.7864 9.09921 9.09924 13.7863 9.09924 19.5682C9.09924 25.3501 13.7864 30.0372 19.5682 30.0372Z" fill="#FFE8B6"/>
<path d="M23.9099 43.4773C21.7585 43.4773 20.3767 42.663 19.5614 41.9151C18.746 42.663 17.3643 43.4773 15.2129 43.4773C11.3243 43.4773 9.94904 40.816 9.89143 40.7018C9.76831 40.4457 9.75043 40.1514 9.84161 39.8822C9.93279 39.613 10.1258 39.3902 10.3792 39.2616C10.6327 39.1329 10.9265 39.1087 11.1976 39.194C11.4687 39.2793 11.6956 39.4674 11.8298 39.718C11.8798 39.8071 12.7364 41.303 15.2129 41.303C17.7111 41.303 18.5612 39.781 18.596 39.7158C18.7884 39.3592 19.1428 39.1462 19.5733 39.1364C19.7723 39.138 19.9671 39.1942 20.1364 39.2988C20.3056 39.4035 20.4429 39.5526 20.5333 39.73C20.5615 39.781 21.4106 41.303 23.9099 41.303C26.4092 41.303 27.2582 39.781 27.293 39.7158C27.5756 39.1929 28.2268 38.9842 28.7552 39.2592C29.0086 39.3884 29.2008 39.6125 29.29 39.8826C29.3791 40.1527 29.358 40.4472 29.2313 40.7018C29.1748 40.816 27.7985 43.4773 23.9099 43.4773ZM28.2584 50C26.1069 50 24.7252 49.1857 23.9099 48.4378C23.0945 49.1857 21.7128 50 19.5614 50C17.41 50 16.0282 49.1857 15.2129 48.4378C14.3975 49.1857 13.0158 50 10.8644 50C6.97576 50 5.60056 47.3387 5.54294 47.2246C5.41983 46.9684 5.40194 46.6742 5.49313 46.405C5.58431 46.1357 5.7773 45.9129 6.03075 45.7843C6.28421 45.6557 6.57797 45.6314 6.8491 45.7167C7.12022 45.802 7.34716 45.9901 7.48128 46.2407C7.53128 46.3299 8.38794 47.8257 10.8644 47.8257C13.3626 47.8257 14.2127 46.3038 14.2475 46.2386C14.343 46.0628 14.4843 45.9162 14.6563 45.8141C14.8284 45.7121 15.0248 45.6586 15.2248 45.6591C15.4239 45.6607 15.6186 45.7169 15.7879 45.8216C15.9571 45.9262 16.0944 46.0754 16.1848 46.2527C16.213 46.3038 17.0632 47.8257 19.5614 47.8257C22.0607 47.8257 22.9097 46.3038 22.9445 46.2386C23.1369 45.882 23.5207 45.6504 23.9218 45.6591C24.1208 45.6607 24.3156 45.7169 24.4848 45.8216C24.6541 45.9262 24.7914 46.0754 24.8818 46.2527C24.91 46.3038 25.7591 47.8257 28.2584 47.8257C30.7576 47.8257 31.6067 46.3038 31.6415 46.2386C31.9241 45.7156 32.5764 45.5069 33.1037 45.782C33.3571 45.9112 33.5493 46.1352 33.6384 46.4053C33.7276 46.6755 33.7065 46.9699 33.5798 47.2246C33.5233 47.3387 32.147 50 28.2584 50Z" fill="#3B88C3"/>
</svg>
