<svg width="40" height="30" viewBox="0 0 40 30" fill="none" xmlns="http://www.w3.org/2000/svg">
<path d="M11.1116 15C11.1116 10.2656 15.0909 6.42857 20.0009 6.42857C24.9108 6.42857 28.8901 10.2656 28.8901 15C28.8901 19.7344 24.9108 23.5714 20.0009 23.5714C15.0909 23.5714 11.1116 19.7344 11.1116 15ZM20.0009 20.3571C23.0705 20.3571 25.5567 17.9598 25.5567 15C25.5567 12.0402 23.0705 9.64286 20.0009 9.64286C19.9523 9.64286 19.9106 9.64286 19.7995 9.64286C19.9523 9.98437 20.0009 10.346 20.0009 10.7143C20.0009 13.0781 18.0077 15 15.5562 15C15.1743 15 14.7993 14.9531 14.4451 14.8058C14.4451 14.9129 14.4451 14.9531 14.4451 14.9397C14.4451 17.9598 16.9313 20.3571 20.0009 20.3571ZM6.62668 5.39732C9.89627 2.46696 14.3895 0 20.0009 0C25.6122 0 30.1055 2.46696 33.3765 5.39732C36.6266 8.30357 38.8003 11.7254 39.8281 14.1763C40.0573 14.7054 40.0573 15.2946 39.8281 15.8237C38.8003 18.2143 36.6266 21.6362 33.3765 24.6027C30.1055 27.5357 25.6122 30 20.0009 30C14.3895 30 9.89627 27.5357 6.62668 24.6027C3.37654 21.6362 1.20423 18.2143 0.170919 15.8237C-0.0569729 15.2946 -0.0569729 14.7054 0.170919 14.1763C1.20423 11.7254 3.37654 8.30357 6.62668 5.39732ZM20.0009 3.21429C15.4729 3.21429 11.7505 5.19643 8.89623 7.74777C6.2225 10.1451 4.37659 12.9308 3.43349 15C4.37659 17.0089 6.2225 19.8549 8.89623 22.2522C11.7505 24.8036 15.4729 26.7857 20.0009 26.7857C24.5288 26.7857 28.2512 24.8036 31.1055 22.2522C33.7792 19.8549 35.564 17.0089 36.571 15C35.564 12.9308 33.7792 10.1451 31.1055 7.74777C28.2512 5.19643 24.5288 3.21429 20.0009 3.21429Z" fill="white"/>
</svg>
