<svg width="30" height="30" viewBox="0 0 30 30" fill="none" xmlns="http://www.w3.org/2000/svg">
<path d="M1.875 11.25H20.625C23.727 11.25 26.25 8.72695 26.25 5.625C26.25 2.52305 23.727 0 20.625 0H18.75C17.7135 0 16.875 0.838477 16.875 1.875C16.875 2.91152 17.7135 3.75 18.75 3.75H20.625C21.6598 3.75 22.5 4.59023 22.5 5.625C22.5 6.65977 21.6598 7.5 20.625 7.5H1.875C0.838477 7.5 0 8.33789 0 9.375C0 10.4121 0.838477 11.25 1.875 11.25ZM9.375 18.75H1.875C0.838477 18.75 0 19.5885 0 20.625C0 21.6615 0.838477 22.5 1.875 22.5H9.375C10.4098 22.5 11.25 23.3402 11.25 24.375C11.25 25.4098 10.4098 26.25 9.375 26.25H7.5C6.46348 26.25 5.625 27.0885 5.625 28.125C5.625 29.1615 6.46348 30 7.5 30H9.375C12.477 30 15 27.477 15 24.375C15 21.273 12.4746 18.75 9.375 18.75ZM24.375 13.125H1.875C0.838477 13.125 0 13.9629 0 15C0 16.0371 0.838477 16.875 1.875 16.875H24.375C25.4098 16.875 26.25 17.7152 26.25 18.75C26.25 19.7848 25.4098 20.625 24.375 20.625H22.5C21.4635 20.625 20.625 21.4635 20.625 22.5C20.625 23.5365 21.4635 24.375 22.5 24.375H24.375C27.477 24.375 30 21.852 30 18.75C30 15.648 27.4746 13.125 24.375 13.125Z" fill="white"/>
</svg>
